<svg width="34" height="33" viewBox="0 0 34 33" fill="none" xmlns="http://www.w3.org/2000/svg">
<circle cx="16.9187" cy="16.3564" r="16.1433" fill="#1D2C45"/>
<path d="M16.9188 0.213135C8.00291 0.213135 0.775391 7.44065 0.775391 16.3565C0.775391 25.2723 8.00291 32.4999 16.9188 32.4999C25.8346 32.4999 33.0621 25.2723 33.0621 16.3565C33.0621 7.44065 25.8346 0.213135 16.9188 0.213135ZM20.7427 11.3689H18.3162C18.0286 11.3689 17.7091 11.7472 17.7091 12.25V14.0023H20.7444L20.2853 16.5011H17.7091V24.0027H14.8453V16.5011H12.2473V14.0023H14.8453V12.5325C14.8453 10.4238 16.3083 8.71026 18.3162 8.71026H20.7427V11.3689Z" fill="#F0F5FE"/>
</svg>
