<svg width="463" height="275" viewBox="0 0 463 275" fill="none" xmlns="http://www.w3.org/2000/svg">
<path d="M0.84375 222.375C1.19551 225.889 1.77371 229.379 2.57498 232.824C2.57498 233 2.66985 233.184 2.70937 233.36H15.4288V259.406C18.0543 263.026 20.8916 266.497 23.9269 269.802V233.36H63.6109V272.789H72.0931V233.36H111.777V272.789H120.315V233.36H159.999V272.789H168.536V233.36H208.22V272.789H216.726V233.36H256.41V272.789H264.908V233.36H304.592V272.789H313.098V233.36H352.727V272.789H361.233V233.36H400.948V272.789H409.454V233.36H449.138V264.47C452.557 259.341 455.408 253.877 457.644 248.168V233.36H462.15C462.941 229.736 463.581 226.067 464.032 222.375H0.84375Z" fill="white" stroke="#1D2C45" stroke-linecap="round" stroke-linejoin="round"/>
<path opacity="0.3" d="M103.524 72.3997C108.794 67.2929 108.794 59.0132 103.524 53.9064C98.254 48.7996 89.71 48.7996 84.4402 53.9064C79.1704 59.0132 79.1704 67.2929 84.4402 72.3997C89.71 77.5065 98.254 77.5065 103.524 72.3997Z" fill="white"/>
<path opacity="0.3" d="M52.7639 76.5838C59.8439 74.3449 63.7105 66.9681 61.4002 60.1071C59.0899 53.2461 51.4775 49.4991 44.3976 51.738C37.3176 53.9768 33.451 61.3537 35.7613 68.2147C38.0716 75.0756 45.6839 78.8226 52.7639 76.5838Z" fill="white"/>
<path opacity="0.3" d="M141.515 66.5289C147.022 61.6628 147.415 53.3919 142.394 48.0553C137.372 42.7187 128.837 42.3373 123.331 47.2035C117.824 52.0696 117.43 60.3406 122.452 65.6771C127.473 71.0137 136.008 71.3951 141.515 66.5289Z" fill="white"/>
<path opacity="0.3" d="M175.189 61.578C182.642 61.578 188.684 55.7234 188.684 48.5013C188.684 41.2792 182.642 35.4246 175.189 35.4246C167.737 35.4246 161.695 41.2792 161.695 48.5013C161.695 55.7234 167.737 61.578 175.189 61.578Z" fill="white"/>
<path opacity="0.3" d="M220.104 50.2704C227.556 50.2704 233.598 44.4158 233.598 37.1937C233.598 29.9716 227.556 24.1169 220.104 24.1169C212.651 24.1169 206.609 29.9716 206.609 37.1937C206.609 44.4158 212.651 50.2704 220.104 50.2704Z" fill="white"/>
<path opacity="0.3" d="M258.582 48.9534C263.852 43.8467 263.852 35.5669 258.582 30.4601C253.313 25.3533 244.769 25.3533 239.499 30.4601C234.229 35.5669 234.229 43.8467 239.499 48.9534C244.769 54.0602 253.313 54.0602 258.582 48.9534Z" fill="white"/>
<path opacity="0.3" d="M348.302 61.9277C351.184 55.2675 347.949 47.6043 341.076 44.8115C334.203 42.0186 326.296 45.1537 323.414 51.8139C320.532 58.4741 323.767 66.1374 330.639 68.9302C337.512 71.7231 345.42 68.588 348.302 61.9277Z" fill="white"/>
<path opacity="0.3" d="M422.772 75.8855C430.022 74.2143 434.501 67.1637 432.777 60.1377C431.052 53.1116 423.777 48.7707 416.526 50.4419C409.276 52.1132 404.796 59.1638 406.521 66.1898C408.246 73.2159 415.521 77.5568 422.772 75.8855Z" fill="white"/>
<path opacity="0.3" d="M294.731 60.817C302.006 59.2526 306.596 52.2687 304.981 45.2181C303.367 38.1675 296.16 33.72 288.885 35.2844C281.609 36.8488 277.02 43.8326 278.634 50.8832C280.248 57.9338 287.455 62.3813 294.731 60.817Z" fill="white"/>
<path opacity="0.3" d="M376.904 73.1017C384.259 71.9383 389.248 65.217 388.048 58.0892C386.847 50.9614 379.911 46.1264 372.556 47.2897C365.201 48.4531 360.211 55.1744 361.412 62.3022C362.613 69.43 369.548 74.2651 376.904 73.1017Z" fill="white"/>
<path opacity="0.3" d="M262.861 37.3012C270.314 37.3012 276.355 31.4465 276.355 24.2244C276.355 17.0024 270.314 11.1477 262.861 11.1477C255.409 11.1477 249.367 17.0024 249.367 24.2244C249.367 31.4465 255.409 37.3012 262.861 37.3012Z" fill="white"/>
<path opacity="0.3" d="M205.424 37.3012C212.877 37.3012 218.918 31.4465 218.918 24.2244C218.918 17.0024 212.877 11.1477 205.424 11.1477C197.971 11.1477 191.93 17.0024 191.93 24.2244C191.93 31.4465 197.971 37.3012 205.424 37.3012Z" fill="white"/>
<path d="M14.5547 54.3076C14.5547 54.3076 143.354 68.5488 290.2 0.568115" stroke="#1D2C45" stroke-width="0.5" stroke-linecap="round" stroke-linejoin="round"/>
<path d="M52.3278 65.2548C52.372 66.066 52.167 66.8716 51.7387 67.5698C51.3103 68.2681 50.6779 68.8275 49.9214 69.1773C49.1649 69.5271 48.3183 69.6517 47.4888 69.5351C46.6592 69.4186 45.884 69.0663 45.2611 68.5227C44.6382 67.9792 44.1957 67.2688 43.9895 66.4814C43.7834 65.6941 43.8228 64.8652 44.1029 64.0996C44.3829 63.334 44.891 62.6661 45.5629 62.1804C46.2347 61.6946 47.0401 61.4129 47.8772 61.3709C48.4328 61.342 48.9888 61.4196 49.5133 61.5992C50.0379 61.7789 50.5207 62.0571 50.9342 62.4179C51.3476 62.7787 51.6835 63.215 51.9227 63.7018C52.1618 64.1886 52.2995 64.7164 52.3278 65.2548Z" fill="white" stroke="#1D2C45" stroke-width="0.5" stroke-linecap="round" stroke-linejoin="round"/>
<path d="M50.055 61.9225L45.7388 62.1446L45.6202 60.0533C45.59 59.4977 45.7888 58.9532 46.1727 58.5395C46.5566 58.1258 47.0943 57.8767 47.6676 57.847C48.2405 57.8198 48.8011 58.0131 49.2276 58.3847C49.654 58.7564 49.9116 59.2762 49.9443 59.8311L50.055 61.9225Z" fill="#1D2C45" stroke="#1D2C45" stroke-width="0.5" stroke-linecap="round" stroke-linejoin="round"/>
<path d="M44.7656 55.6179C44.7656 55.6179 47.3506 56.0852 48.1253 57.8242C48.3786 56.9383 48.9364 56.1626 49.7064 55.6256" stroke="#1D2C45" stroke-width="0.5" stroke-linecap="round" stroke-linejoin="round"/>
<path d="M98.1915 62.6344C98.2956 63.4397 98.1511 64.2568 97.7763 64.9826C97.4015 65.7084 96.8131 66.3103 96.0855 66.7122C95.3579 67.1141 94.5236 67.2981 93.6882 67.2408C92.8528 67.1835 92.0536 66.8876 91.3916 66.3905C90.7296 65.8933 90.2345 65.2171 89.9688 64.4474C89.7032 63.6778 89.6788 62.849 89.8989 62.0659C90.119 61.2828 90.5736 60.5805 91.2054 60.0477C91.8371 59.5148 92.6176 59.1754 93.4484 59.0722C94.0013 59.0035 94.5628 59.0412 95.1006 59.1831C95.6385 59.3251 96.1421 59.5685 96.5828 59.8994C97.0234 60.2303 97.3923 60.6422 97.6683 61.1115C97.9444 61.5809 98.1222 62.0983 98.1915 62.6344Z" fill="white" stroke="#1D2C45" stroke-width="0.5" stroke-linecap="round" stroke-linejoin="round"/>
<path d="M95.6915 59.4712L91.399 59.9998L91.1303 57.9238C91.0586 57.3723 91.2156 56.8158 91.5669 56.3763C91.9181 55.9368 92.4348 55.6503 93.0038 55.5796C93.2851 55.5453 93.5707 55.565 93.8442 55.6377C94.1177 55.7104 94.3737 55.8346 94.5976 56.0032C94.8215 56.1718 95.0089 56.3815 95.1492 56.6204C95.2894 56.8592 95.3797 57.1225 95.4149 57.3952L95.6915 59.4712Z" fill="#1D2C45" stroke="#1D2C45" stroke-width="0.5" stroke-linecap="round" stroke-linejoin="round"/>
<path d="M89.9375 53.5567C89.9375 53.5567 92.5541 53.8401 93.4553 55.5255C93.6379 54.6291 94.1283 53.8191 94.8466 53.2273" stroke="#1D2C45" stroke-width="0.5" stroke-linecap="round" stroke-linejoin="round"/>
<path d="M136.867 57.8084C137.008 58.6069 136.901 59.428 136.561 60.1678C136.22 60.9077 135.661 61.5332 134.954 61.9653C134.247 62.3974 133.424 62.6168 132.588 62.5957C131.752 62.5746 130.942 62.314 130.259 61.8468C129.576 61.3795 129.051 60.7267 128.751 59.9707C128.451 59.2146 128.388 58.3894 128.572 57.599C128.755 56.8087 129.176 56.0888 129.782 55.5302C130.387 54.9716 131.15 54.5995 131.974 54.4607C132.522 54.3684 133.083 54.3817 133.626 54.5001C134.169 54.6184 134.683 54.8395 135.137 55.1504C135.592 55.4614 135.979 55.8563 136.275 56.3124C136.572 56.7685 136.773 57.2769 136.867 57.8084Z" fill="white" stroke="#1D2C45" stroke-width="0.5" stroke-linecap="round" stroke-linejoin="round"/>
<path d="M134.226 54.7675L129.965 55.4799L129.593 53.4116C129.497 52.8642 129.628 52.302 129.959 51.8483C130.289 51.3946 130.792 51.0863 131.356 50.9908C131.636 50.9435 131.923 50.9502 132.2 51.0106C132.477 51.0709 132.739 51.1836 132.971 51.3423C133.203 51.5011 133.401 51.7026 133.552 51.9354C133.704 52.1683 133.806 52.4278 133.854 52.6991L134.226 54.7675Z" fill="#1D2C45" stroke="#1D2C45" stroke-width="0.5" stroke-linecap="round" stroke-linejoin="round"/>
<path d="M128.219 49.106C128.219 49.106 130.851 49.2745 131.824 50.9139C131.965 50.0104 132.416 49.1792 133.104 48.5544" stroke="#1D2C45" stroke-width="0.5" stroke-linecap="round" stroke-linejoin="round"/>
<path d="M179.939 49.3507C180.128 50.1403 180.072 50.9667 179.776 51.7252C179.481 52.4837 178.96 53.1404 178.28 53.6121C177.6 54.0838 176.79 54.3494 175.954 54.3752C175.118 54.4011 174.293 54.1861 173.583 53.7574C172.873 53.3287 172.31 52.7056 171.965 51.9668C171.621 51.2281 171.51 50.407 171.647 49.6072C171.784 48.8075 172.163 48.0651 172.735 47.474C173.308 46.8829 174.048 46.4697 174.863 46.2865C175.956 46.0409 177.104 46.2257 178.056 46.8004C179.007 47.375 179.685 48.2923 179.939 49.3507Z" fill="white" stroke="#1D2C45" stroke-width="0.5" stroke-linecap="round" stroke-linejoin="round"/>
<path d="M177.129 46.4557L172.915 47.3979L172.425 45.3525C172.298 44.8101 172.397 44.2407 172.703 43.7696C173.008 43.2984 173.494 42.964 174.054 42.8399C174.607 42.7147 175.189 42.8052 175.674 43.0918C176.159 43.3784 176.508 43.8381 176.647 44.372L177.129 46.4557Z" fill="#1D2C45" stroke="#1D2C45" stroke-width="0.5" stroke-linecap="round" stroke-linejoin="round"/>
<path d="M170.777 41.131C170.777 41.131 173.418 41.131 174.485 42.7397C174.569 41.8285 174.97 40.9721 175.623 40.3113" stroke="#1D2C45" stroke-width="0.5" stroke-linecap="round" stroke-linejoin="round"/>
<path d="M224.286 36.6882C224.577 37.4499 224.627 38.2778 224.432 39.0674C224.237 39.857 223.804 40.5727 223.189 41.1241C222.574 41.6755 221.804 42.0379 220.977 42.1654C220.149 42.2929 219.302 42.1799 218.54 41.8405C217.779 41.5011 217.139 40.9507 216.701 40.2588C216.262 39.5669 216.045 38.7646 216.077 37.9533C216.109 37.1419 216.389 36.358 216.881 35.7006C217.372 35.0432 218.054 34.5418 218.84 34.2598C219.362 34.0724 219.917 33.9865 220.473 34.0072C221.03 34.0278 221.577 34.1545 222.082 34.38C222.588 34.6056 223.043 34.9255 223.421 35.3216C223.8 35.7176 224.094 36.182 224.286 36.6882Z" fill="white" stroke="#1D2C45" stroke-width="0.5" stroke-linecap="round" stroke-linejoin="round"/>
<path d="M221.108 34.1598L217.053 35.6153L216.302 33.6465C216.101 33.1293 216.12 32.5563 216.354 32.0525C216.588 31.5487 217.018 31.1551 217.551 30.9576C217.818 30.8571 218.103 30.8091 218.39 30.8164C218.676 30.8237 218.958 30.8863 219.219 31.0004C219.481 31.1145 219.716 31.2778 219.911 31.4809C220.106 31.684 220.258 31.9228 220.357 32.1833L221.108 34.1598Z" fill="#1D2C45" stroke="#1D2C45" stroke-width="0.5" stroke-linecap="round" stroke-linejoin="round"/>
<path d="M214.117 29.6632C214.117 29.6632 216.734 29.3645 217.999 30.8047C217.962 29.8927 218.24 28.995 218.789 28.2537" stroke="#1D2C45" stroke-width="0.5" stroke-linecap="round" stroke-linejoin="round"/>
<path d="M267.217 21.5204C267.542 22.2696 267.631 23.0954 267.471 23.8934C267.312 24.6914 266.912 25.4255 266.321 26.0029C265.731 26.5802 264.977 26.9748 264.155 27.1366C263.333 27.2984 262.48 27.2202 261.704 26.9119C260.928 26.6036 260.264 26.079 259.796 25.4046C259.328 24.7302 259.076 23.9363 259.074 23.1235C259.072 22.3107 259.319 21.5156 259.783 20.8388C260.248 20.162 260.909 19.6341 261.683 19.3218C262.718 18.9044 263.882 18.9014 264.919 19.3135C265.956 19.7256 266.782 20.5191 267.217 21.5204Z" fill="white" stroke="#1D2C45" stroke-width="0.5" stroke-linecap="round" stroke-linejoin="round"/>
<path d="M263.94 19.1604L259.948 20.7845L259.118 18.854C259.004 18.6016 258.943 18.3298 258.938 18.0544C258.933 17.779 258.984 17.5053 259.088 17.249C259.192 16.9928 259.348 16.759 259.546 16.5611C259.743 16.3633 259.98 16.2053 260.241 16.0961C260.502 15.9891 260.783 15.9331 261.067 15.9314C261.351 15.9297 261.632 15.9823 261.895 16.0862C262.158 16.1901 262.397 16.3433 262.599 16.5369C262.801 16.7305 262.961 16.9608 263.071 17.2146L263.94 19.1604Z" fill="#1D2C45" stroke="#1D2C45" stroke-width="0.5" stroke-linecap="round" stroke-linejoin="round"/>
<path d="M256.758 14.9241C256.758 14.9241 259.359 14.5181 260.71 15.9046C260.635 14.9916 260.883 14.0808 261.414 13.323" stroke="#1D2C45" stroke-width="0.5" stroke-linecap="round" stroke-linejoin="round"/>
<path d="M453.849 54.3076C453.849 54.3076 325.065 68.5488 178.203 0.568115" stroke="#1D2C45" stroke-width="0.5" stroke-linecap="round" stroke-linejoin="round"/>
<path d="M416.091 65.2548C416.049 66.0639 416.255 66.8671 416.683 67.5628C417.111 68.2586 417.743 68.8158 418.497 69.164C419.252 69.5122 420.097 69.6358 420.924 69.5192C421.751 69.4027 422.524 69.0511 423.145 68.509C423.767 67.9669 424.208 67.2585 424.414 66.4734C424.62 65.6882 424.581 64.8615 424.303 64.0977C424.024 63.3339 423.518 62.6672 422.849 62.1819C422.18 61.6966 421.377 61.4143 420.542 61.3709C419.986 61.342 419.43 61.4196 418.906 61.5992C418.381 61.7789 417.898 62.0571 417.485 62.4179C417.072 62.7787 416.736 63.215 416.497 63.7018C416.257 64.1886 416.12 64.7164 416.091 65.2548Z" fill="white" stroke="#1D2C45" stroke-width="0.5" stroke-linecap="round" stroke-linejoin="round"/>
<path d="M418.344 61.9225L422.66 62.1446L422.779 60.0533C422.793 59.7769 422.752 59.5005 422.656 59.2398C422.56 58.9791 422.412 58.7393 422.22 58.5343C422.029 58.3292 421.797 58.1629 421.539 58.045C421.28 57.927 421.001 57.8598 420.715 57.847C420.142 57.8198 419.582 58.0131 419.155 58.3847C418.729 58.7564 418.471 59.2762 418.439 59.8311L418.344 61.9225Z" fill="#1D2C45" stroke="#1D2C45" stroke-width="0.5" stroke-linecap="round" stroke-linejoin="round"/>
<path d="M423.64 55.6179C423.64 55.6179 421.055 56.0852 420.28 57.8242C420.027 56.9383 419.469 56.1626 418.699 55.6256" stroke="#1D2C45" stroke-width="0.5" stroke-linecap="round" stroke-linejoin="round"/>
<path d="M376.85 66.5237C378.766 65.222 379.23 62.6614 377.887 60.8044C376.544 58.9475 373.901 58.4974 371.985 59.7991C370.069 61.1008 369.605 63.6614 370.948 65.5183C372.291 67.3752 374.933 67.8254 376.85 66.5237Z" fill="white" stroke="#1D2C45" stroke-width="0.5" stroke-linecap="round" stroke-linejoin="round"/>
<path d="M372.703 59.4707L376.996 59.9993L377.264 57.9233C377.336 57.3718 377.179 56.8153 376.828 56.3758C376.477 55.9363 375.96 55.6498 375.391 55.5791C374.829 55.5206 374.266 55.678 373.822 56.0174C373.379 56.3569 373.091 56.8514 373.019 57.3947L372.703 59.4707Z" fill="#1D2C45" stroke="#1D2C45" stroke-width="0.5" stroke-linecap="round" stroke-linejoin="round"/>
<path d="M378.472 53.5567C378.472 53.5567 375.855 53.8401 374.954 55.5255C374.771 54.6291 374.281 53.8191 373.562 53.2273" stroke="#1D2C45" stroke-width="0.5" stroke-linecap="round" stroke-linejoin="round"/>
<path d="M331.533 57.8084C331.392 58.6069 331.499 59.428 331.839 60.1678C332.18 60.9077 332.739 61.5332 333.446 61.9653C334.153 62.3974 334.976 62.6168 335.812 62.5957C336.648 62.5746 337.458 62.314 338.141 61.8468C338.824 61.3795 339.349 60.7267 339.649 59.9707C339.949 59.2146 340.012 58.3894 339.828 57.599C339.645 56.8087 339.224 56.0888 338.618 55.5302C338.013 54.9716 337.25 54.5995 336.426 54.4607C335.878 54.3684 335.317 54.3817 334.774 54.5001C334.231 54.6184 333.717 54.8395 333.263 55.1504C332.808 55.4614 332.421 55.8563 332.125 56.3124C331.828 56.7685 331.627 57.2769 331.533 57.8084Z" fill="white" stroke="#1D2C45" stroke-width="0.5" stroke-linecap="round" stroke-linejoin="round"/>
<path d="M334.172 54.7675L338.433 55.4799L338.804 53.4116C338.901 52.8642 338.769 52.302 338.439 51.8483C338.108 51.3946 337.606 51.0863 337.041 50.9908C336.762 50.9435 336.475 50.9502 336.198 51.0106C335.921 51.0709 335.659 51.1836 335.426 51.3423C335.194 51.5011 334.997 51.7026 334.845 51.9354C334.694 52.1683 334.591 52.4278 334.543 52.6991L334.172 54.7675Z" fill="#1D2C45" stroke="#1D2C45" stroke-width="0.5" stroke-linecap="round" stroke-linejoin="round"/>
<path d="M340.206 49.106C340.206 49.106 337.573 49.2745 336.601 50.9139C336.46 50.0104 336.009 49.1792 335.32 48.5544" stroke="#1D2C45" stroke-width="0.5" stroke-linecap="round" stroke-linejoin="round"/>
<path d="M288.461 49.3507C288.272 50.1403 288.328 50.9667 288.624 51.7252C288.919 52.4837 289.44 53.1404 290.12 53.6121C290.8 54.0838 291.61 54.3494 292.446 54.3752C293.282 54.4011 294.107 54.1861 294.817 53.7574C295.527 53.3287 296.09 52.7056 296.435 51.9668C296.779 51.2281 296.89 50.407 296.753 49.6072C296.616 48.8075 296.237 48.0651 295.665 47.474C295.092 46.8829 294.351 46.4697 293.537 46.2865C292.444 46.0409 291.296 46.2257 290.344 46.8004C289.393 47.375 288.715 48.2923 288.461 49.3507Z" fill="white" stroke="#1D2C45" stroke-width="0.5" stroke-linecap="round" stroke-linejoin="round"/>
<path d="M291.277 46.4557L295.491 47.3979L295.973 45.3525C296.037 45.0844 296.047 44.8066 296 44.5351C295.953 44.2635 295.852 44.0035 295.701 43.7701C295.551 43.5367 295.354 43.3343 295.123 43.1747C294.891 43.015 294.629 42.9013 294.352 42.8399C293.799 42.7147 293.218 42.8052 292.733 43.0918C292.248 43.3784 291.898 43.8381 291.76 44.372L291.277 46.4557Z" fill="#1D2C45" stroke="#1D2C45" stroke-width="0.5" stroke-linecap="round" stroke-linejoin="round"/>
<path d="M297.627 41.131C297.627 41.131 294.987 41.131 293.92 42.7397C293.836 41.8285 293.434 40.9721 292.781 40.3113" stroke="#1D2C45" stroke-width="0.5" stroke-linecap="round" stroke-linejoin="round"/>
<path d="M244.114 36.6882C243.824 37.4499 243.773 38.2778 243.968 39.0674C244.164 39.857 244.596 40.5727 245.211 41.1241C245.826 41.6755 246.596 42.0379 247.423 42.1654C248.251 42.2929 249.099 42.1799 249.86 41.8405C250.621 41.5011 251.261 40.9507 251.7 40.2588C252.138 39.5669 252.355 38.7646 252.323 37.9533C252.291 37.1419 252.011 36.358 251.52 35.7006C251.028 35.0432 250.346 34.5418 249.56 34.2598C249.038 34.0724 248.483 33.9865 247.927 34.0072C247.37 34.0278 246.824 34.1545 246.318 34.38C245.812 34.6056 245.357 34.9255 244.979 35.3216C244.601 35.7176 244.307 36.182 244.114 36.6882Z" fill="white" stroke="#1D2C45" stroke-width="0.5" stroke-linecap="round" stroke-linejoin="round"/>
<path d="M247.297 34.1598L251.352 35.6154L252.103 33.6466C252.202 33.3886 252.247 33.1142 252.236 32.8394C252.225 32.5645 252.158 32.2944 252.039 32.0446C251.92 31.7948 251.751 31.5703 251.542 31.3837C251.334 31.1972 251.089 31.0524 250.823 30.9577C250.287 30.7641 249.694 30.7845 249.174 31.0143C248.653 31.2441 248.249 31.6646 248.048 32.1834L247.297 34.1598Z" fill="#1D2C45" stroke="#1D2C45" stroke-width="0.5" stroke-linecap="round" stroke-linejoin="round"/>
<path d="M254.281 29.6632C254.281 29.6632 251.665 29.3645 250.4 30.8047C250.437 29.8927 250.159 28.995 249.609 28.2537" stroke="#1D2C45" stroke-width="0.5" stroke-linecap="round" stroke-linejoin="round"/>
<path d="M201.179 21.5204C200.854 22.2696 200.765 23.0954 200.925 23.8934C201.084 24.6914 201.485 25.4255 202.075 26.0029C202.665 26.5802 203.419 26.9748 204.241 27.1366C205.063 27.2984 205.916 27.2202 206.692 26.9119C207.468 26.6036 208.132 26.079 208.601 25.4046C209.069 24.7302 209.32 23.9363 209.322 23.1235C209.324 22.3107 209.077 21.5156 208.613 20.8388C208.149 20.162 207.487 19.6341 206.713 19.3218C205.678 18.9044 204.515 18.9014 203.477 19.3135C202.44 19.7256 201.614 20.5191 201.179 21.5204Z" fill="white" stroke="#1D2C45" stroke-width="0.5" stroke-linecap="round" stroke-linejoin="round"/>
<path d="M204.461 19.1604L208.453 20.7845L209.283 18.854C209.396 18.5997 209.456 18.3262 209.459 18.0494C209.462 17.7726 209.408 17.4979 209.301 17.2414C209.193 16.9848 209.034 16.7515 208.833 16.5549C208.632 16.3583 208.393 16.2024 208.129 16.0961C207.867 15.9891 207.587 15.9331 207.303 15.9314C207.019 15.9297 206.737 15.9823 206.474 16.0862C206.212 16.1901 205.972 16.3433 205.771 16.5369C205.569 16.7305 205.409 16.9608 205.299 17.2146L204.461 19.1604Z" fill="#1D2C45" stroke="#1D2C45" stroke-width="0.5" stroke-linecap="round" stroke-linejoin="round"/>
<path d="M211.648 14.9241C211.648 14.9241 209.048 14.5181 207.696 15.9046C207.771 14.9916 207.523 14.0808 206.992 13.323" stroke="#1D2C45" stroke-width="0.5" stroke-linecap="round" stroke-linejoin="round"/>
<path opacity="0.3" d="M234.899 201.829C240.169 196.722 240.169 188.442 234.899 183.335C229.629 178.229 221.085 178.229 215.815 183.335C210.545 188.442 210.545 196.722 215.815 201.829C221.085 206.935 229.629 206.935 234.899 201.829Z" fill="white"/>
<path d="M228.934 250.949H221.234V267.151H228.934V250.949Z" fill="white" stroke="#1D2C45" stroke-linecap="round" stroke-linejoin="round"/>
<path d="M228.552 244.146H221.809L223.524 196.765H226.828L228.552 244.146Z" fill="#FFCC00" stroke="#1D2C45" stroke-linecap="round" stroke-linejoin="round"/>
<path d="M227.829 191.939C227.829 193.999 226.612 195.677 225.11 195.677C223.608 195.677 222.383 193.999 222.383 191.939C222.383 189.878 225.11 184.937 225.11 184.937C225.11 184.937 227.829 189.878 227.829 191.939Z" fill="white" stroke="#1D2C45" stroke-linecap="round" stroke-linejoin="round"/>
<path d="M228.934 244.031H221.234V250.949H228.934V244.031Z" fill="white" stroke="#1D2C45" stroke-linecap="round" stroke-linejoin="round"/>
<path d="M229.493 244.575H220.853C220.656 244.565 220.471 244.486 220.332 244.351C220.193 244.217 220.111 244.037 220.102 243.847C220.101 243.65 220.179 243.461 220.319 243.318C220.459 243.176 220.65 243.091 220.853 243.081H229.493C229.696 243.091 229.887 243.176 230.027 243.318C230.166 243.461 230.244 243.65 230.244 243.847C230.245 243.943 230.226 244.038 230.189 244.127C230.152 244.215 230.096 244.296 230.026 244.364C229.956 244.432 229.873 244.485 229.782 244.521C229.69 244.558 229.592 244.576 229.493 244.575Z" fill="white" stroke="#1D2C45" stroke-linecap="round" stroke-linejoin="round"/>
<path d="M229.493 252.22H220.853C220.656 252.211 220.471 252.131 220.332 251.996C220.193 251.862 220.111 251.682 220.102 251.492C220.111 251.302 220.193 251.122 220.332 250.988C220.471 250.853 220.656 250.774 220.853 250.764H229.493C229.689 250.774 229.874 250.853 230.013 250.988C230.152 251.122 230.234 251.302 230.244 251.492C230.245 251.588 230.226 251.683 230.189 251.772C230.152 251.861 230.096 251.941 230.026 252.009C229.956 252.077 229.873 252.13 229.782 252.167C229.69 252.203 229.592 252.221 229.493 252.22Z" fill="white" stroke="#1D2C45" stroke-linecap="round" stroke-linejoin="round"/>
<path d="M230.813 266.055H219.54C219.125 266.055 218.789 266.381 218.789 266.783V267.511C218.789 267.913 219.125 268.239 219.54 268.239H230.813C231.228 268.239 231.564 267.913 231.564 267.511V266.783C231.564 266.381 231.228 266.055 230.813 266.055Z" fill="white" stroke="#1D2C45" stroke-linecap="round" stroke-linejoin="round"/>
<path d="M242.638 272.789H206.574C206.574 271.583 207.069 270.425 207.95 269.572C208.83 268.718 210.025 268.239 211.27 268.239H237.942C238.559 268.238 239.17 268.355 239.74 268.583C240.31 268.812 240.828 269.147 241.265 269.57C241.701 269.992 242.047 270.494 242.282 271.047C242.518 271.599 242.639 272.192 242.638 272.789Z" fill="white" stroke="#1D2C45" stroke-linecap="round" stroke-linejoin="round"/>
<path d="M14.3945 272.789H462.879" stroke="#1D2C45" stroke-miterlimit="10" stroke-linecap="round"/>
<path d="M272.446 170.258C272.446 170.258 267.125 158.699 264.991 152.294C262.857 145.89 259.876 142.381 257.955 140.527C256.035 138.674 247.307 135.364 244.106 133.089C240.904 130.814 230.469 130.791 229.615 131.235C229.351 131.446 229.146 131.719 229.019 132.027C228.892 132.336 228.848 132.67 228.891 133C228.933 133.329 229.061 133.643 229.263 133.912C229.464 134.181 229.732 134.396 230.042 134.537C231.75 135.364 234.303 137.226 235.797 137.433C237.291 137.639 244.746 142.588 244.746 142.588C244.746 142.588 236.011 140.527 233.679 140.114C231.347 139.7 228.351 140.114 229.41 141.975C229.85 142.756 230.459 143.434 231.196 143.963C231.933 144.492 232.78 144.859 233.679 145.04C235.378 145.453 239.426 147.928 239.426 147.928C239.426 147.928 242.414 157.841 244.54 161.349C246.667 164.858 256.477 170.641 256.477 170.641C256.477 170.641 273.671 204.379 281.971 216.383C290.272 228.388 300.153 233.061 302.92 235.121C305.687 237.182 308.248 237.603 311.015 236.362C313.782 235.121 321.458 229.337 321.458 229.337L336.375 220.459L339.355 172.963C339.355 172.963 332.114 178.946 329.339 181.014C326.565 183.082 318.73 188.039 315.276 190.498C311.821 192.957 310.375 197.109 310.802 197.929C311.228 198.748 308.248 198.963 306.968 198.963C305.687 198.963 302.92 202.885 302.92 202.885C302.92 202.885 279.908 181.206 276.707 177.076C274.999 174.984 273.568 172.694 272.446 170.258Z" fill="white" stroke="#1D2C45" stroke-width="0.5" stroke-linecap="round" stroke-linejoin="round"/>
<path d="M261.074 168.887C258.442 168.949 252.379 169.01 251.09 168.32C250.465 167.967 249.904 167.517 249.43 166.988L244.869 144.151H244.987C246.319 143.902 247.587 143.4 248.717 142.673C249.848 141.947 250.819 141.011 251.575 139.919C252.33 138.828 252.855 137.602 253.119 136.312C253.383 135.023 253.382 133.696 253.114 132.407L246.624 111.509L228.742 114.857L230.766 136.598C231.021 137.886 231.535 139.112 232.281 140.207C233.026 141.302 233.987 142.243 235.108 142.977C236.23 143.711 237.49 144.223 238.816 144.483C240.143 144.744 241.509 144.748 242.837 144.496H242.956L247.446 166.988C247.204 167.792 246.813 168.548 246.292 169.217C245.359 170.32 239.707 172.45 237.24 173.346C236.903 173.471 236.613 173.691 236.407 173.978C236.201 174.265 236.089 174.605 236.086 174.955L249.201 172.496L249.643 172.411L262.758 169.952C262.618 169.633 262.384 169.361 262.084 169.171C261.784 168.981 261.432 168.883 261.074 168.887Z" fill="white" stroke="#1D2C45" stroke-width="0.5" stroke-linecap="round" stroke-linejoin="round"/>
<path d="M244.774 143.025H244.672L242.932 143.362C241.788 143.583 240.611 143.583 239.466 143.363C238.322 143.142 237.234 142.706 236.264 142.077C235.294 141.449 234.462 140.642 233.814 139.702C233.167 138.761 232.716 137.707 232.49 136.598L231.375 125.291L249.747 126.547L251.747 132.882C251.979 133.992 251.983 135.136 251.758 136.247C251.533 137.359 251.084 138.416 250.436 139.358C249.788 140.301 248.954 141.11 247.983 141.739C247.011 142.369 245.921 142.806 244.774 143.025Z" fill="#FFCC00"/>
<path d="M266.03 165.823C263.451 165.484 260.9 164.972 258.394 164.291C253.382 163.012 249.698 149.475 249.698 149.475C249.698 149.475 242.844 142.328 242.583 138.751C242.322 135.173 244.164 133.388 246.536 136.713C248.907 140.038 257.334 146.672 257.334 146.672L261.287 147.943" fill="white"/>
<path d="M266.03 165.823C263.451 165.484 260.9 164.972 258.394 164.291C253.382 163.012 249.698 149.475 249.698 149.475C249.698 149.475 242.844 142.328 242.583 138.751C242.322 135.173 244.164 133.388 246.536 136.713C248.907 140.038 257.334 146.672 257.334 146.672L261.287 147.943" stroke="#1D2C45" stroke-width="0.5" stroke-linecap="round" stroke-linejoin="round"/>
<path d="M239.119 146.986C239.119 146.986 247.981 148.342 248.305 150.502C248.629 152.662 245.83 153.114 244.542 152.838C243.253 152.563 239.996 152.662 238.384 150.226C236.771 147.79 238.344 146.817 239.119 146.986Z" fill="white" stroke="#1D2C45" stroke-width="0.5" stroke-linecap="round" stroke-linejoin="round"/>
<path d="M239.481 151.635C239.481 151.635 237.371 152.861 239.561 155.811C240.533 157.121 248.082 159.725 249.134 158.193C250.185 156.661 248.177 154.953 246.074 153.934C243.93 153.031 241.728 152.263 239.481 151.635Z" fill="white" stroke="#1D2C45" stroke-width="0.5" stroke-linecap="round" stroke-linejoin="round"/>
<path d="M240.195 156.332C240.552 157.668 241.084 158.956 241.776 160.162C242.567 161.189 247.84 162.721 248.369 161.441C248.899 160.162 247.31 159.657 245.998 159.143C244.685 158.63 240.195 156.332 240.195 156.332Z" fill="white" stroke="#1D2C45" stroke-width="0.5" stroke-linecap="round" stroke-linejoin="round"/>
<path d="M321.452 229.315L336.369 220.436L339.349 172.94C339.349 172.94 332.108 178.923 329.333 180.992C326.558 183.06 318.724 188.039 315.27 190.498C311.815 192.957 310.369 197.11 310.796 197.929C311.222 198.749 308.242 198.963 306.962 198.963C305.681 198.963 302.914 202.886 302.914 202.886C302.914 202.886 313.586 224.749 315.088 233.873C318.147 231.812 321.452 229.315 321.452 229.315Z" fill="#FFCC00" stroke="#1D2C45" stroke-width="0.5" stroke-linecap="round" stroke-linejoin="round"/>
<path d="M302.918 202.885C302.918 202.885 313.59 224.749 315.092 233.873C318.151 231.812 321.456 229.315 321.456 229.315L327.906 225.484C323.851 218.283 310.799 197.906 310.799 197.906C311.226 198.733 308.246 198.94 306.965 198.94C305.685 198.94 302.918 202.885 302.918 202.885Z" fill="#FFCC00" stroke="#1D2C45" stroke-width="0.5" stroke-linecap="round" stroke-linejoin="round"/>
<path d="M319.526 205.735L315.637 202.173" stroke="#1D2C45" stroke-width="0.5" stroke-linecap="round" stroke-linejoin="round"/>
<path d="M336.412 221.187L322.262 208.233" stroke="#1D2C45" stroke-width="0.5" stroke-linecap="round" stroke-linejoin="round"/>
<path d="M333.187 221.631L323.258 214.254" stroke="#1D2C45" stroke-width="0.5" stroke-linecap="round" stroke-linejoin="round"/>
<path d="M315.82 220.405C316.492 221.539 316.997 222.435 317.258 222.979" stroke="#1D2C45" stroke-width="0.5" stroke-linecap="round" stroke-linejoin="round"/>
<path d="M304.32 202.173C304.32 202.173 310.028 211.021 313.933 217.302" stroke="#1D2C45" stroke-width="0.5" stroke-linecap="round" stroke-linejoin="round"/>
<path d="M307.462 78.8823C307.462 78.8823 304.126 92.6715 306.244 94.7475C307.372 95.7478 308.296 96.9428 308.972 98.2714C308.972 98.2714 301.391 113.256 303.517 114.428C305.644 115.6 308.972 117.369 308.972 117.369C308.972 117.369 313.826 133.526 316.252 134.989L316.656 135.234C317.785 135.906 319.065 136.305 320.387 136.397C321.71 136.489 323.035 136.272 324.252 135.763L329.588 133.518L338.687 144.373L367.146 119.989L364.11 109.418C364.11 109.418 368.355 82.6743 369.265 76.2164C370.174 69.7585 364.719 64.7254 360.174 61.8144C355.628 58.9033 331.367 53.5945 320.458 56.5285C309.549 59.4625 300.75 63.8751 299.841 70.6318C298.932 77.3885 307.462 78.8823 307.462 78.8823Z" fill="white" stroke="#1D2C45" stroke-width="0.5" stroke-linecap="round" stroke-linejoin="round"/>
<path d="M329.594 133.526L339.104 128.991L333.768 138.306L329.594 133.526Z" fill="#1D2C45" stroke="#1D2C45" stroke-width="0.5" stroke-linecap="round" stroke-linejoin="round"/>
<path d="M364.15 109.441C364.15 109.441 368.395 82.6973 369.304 76.2393C370.213 69.7814 364.758 64.7484 360.213 61.8373C355.667 58.9263 331.406 53.6174 320.497 56.5515C309.588 59.4855 300.79 63.898 299.88 70.6547C298.971 77.4114 307.462 78.8823 307.462 78.8823C307.462 78.8823 313.525 79.7633 315.944 79.1734C318.363 78.5835 326.861 76.8216 326.861 76.8216C326.861 76.8216 321.098 87.6844 323.224 88.8718C325.351 90.0592 335.651 91.5147 335.651 91.5147C335.651 91.5147 335.327 100.332 336.908 100.332C338.489 100.332 341.153 97.6815 341.454 96.5018C341.754 95.322 344.481 90.0362 349.035 90.6261C353.588 91.2159 353.881 100.907 352.987 102.967C352.094 105.028 346.663 109.096 346.663 109.096C346.663 109.096 352.118 115.27 357.881 114.681C360.458 114.42 362.727 112.329 364.45 110.084L364.15 109.441Z" fill="#1D2C45" stroke="#1D2C45" stroke-width="0.5" stroke-linecap="round" stroke-linejoin="round"/>
<path d="M329.625 75.6264C329.625 75.6264 348.115 74.1708 355.617 79.0124" stroke="#8A8A8A" stroke-width="0.5" stroke-miterlimit="10"/>
<path d="M358.062 87.3547C359.619 87.7099 361.029 88.5107 362.11 89.6529" stroke="#8A8A8A" stroke-width="0.5" stroke-miterlimit="10"/>
<path d="M326.625 84.8269C326.625 84.8269 330.127 90.1894 342.119 87.7303C347.748 86.5965 352.048 86.4203 355.242 86.8034" stroke="#8A8A8A" stroke-width="0.5" stroke-miterlimit="10"/>
<path d="M317.696 99.9412C318.115 101.167 317.886 102.354 317.166 102.584C316.447 102.814 315.53 102.01 315.103 100.776C314.676 99.5429 314.913 98.3631 315.625 98.1333C316.336 97.9035 317.269 98.6772 317.696 99.9412Z" fill="#1D2C45"/>
<path d="M314.125 120.012C314.125 120.012 321.097 119.422 322.315 114.726" stroke="#1D2C45" stroke-width="0.5" stroke-linecap="round" stroke-linejoin="round"/>
<path d="M311.402 95.3451C311.402 95.3451 313.529 92.4034 318.375 93.5755" stroke="#1D2C45" stroke-width="0.5" stroke-linecap="round" stroke-linejoin="round"/>
<path d="M338.987 142.634L327.469 152.333L330.196 168.489L336.259 160.828C336.259 160.828 332.923 204.31 333.532 213.687C334 220.73 334 227.795 333.532 234.838C333.224 239.541 332.014 248.351 330.805 256.87C329.595 265.389 329.896 272.153 331.105 272.153C332.138 272.225 333.158 272.42 334.141 272.735H415.09C415.09 272.735 416.299 241.326 416.299 232.486C416.299 223.646 415.39 191.647 412.963 181.926C410.536 172.204 405.991 163.41 398.734 151.957C391.477 140.504 375.643 127.359 373.856 126.754C372.07 126.148 370.52 125.29 368.093 126.754C365.667 128.217 342.006 144.373 342.006 144.373L338.987 142.634Z" fill="#FFCC00" stroke="#1D2C45" stroke-width="0.5" stroke-linecap="round" stroke-linejoin="round"/>
<path d="M368.707 116.489L331.719 149.1L338.383 159.97L376.889 124.425L368.707 116.489Z" fill="#FFCC00" stroke="#1D2C45" stroke-width="0.5" stroke-linecap="round" stroke-linejoin="round"/>
<path d="M325.653 250.757C325.653 250.757 272.293 256.633 270.475 256.633C268.657 256.633 254.095 246.674 252.293 246.352C250.49 246.03 244.111 246.934 241.684 247.233C239.257 247.532 235.921 245.172 235.36 247.815C234.799 250.458 238.087 252.519 239.905 252.81C241.724 253.101 245.668 253.99 245.668 253.99L240.206 256.633C240.206 256.633 230.506 260.747 228.688 261.038C228.195 261.177 227.763 261.467 227.455 261.865C227.147 262.263 226.98 262.747 226.98 263.244C226.98 263.741 227.147 264.225 227.455 264.623C227.763 265.021 228.195 265.311 228.688 265.45C230.557 266.003 232.497 266.3 234.451 266.331C234.606 266.928 234.906 267.479 235.327 267.939C235.748 268.399 236.277 268.754 236.87 268.974C238.256 269.539 239.673 270.03 241.115 270.445C241.115 270.445 246.269 273.088 249.605 273.379C252.941 273.67 268.704 272.498 271.131 272.498C273.558 272.498 322.973 274.559 335.408 274.559C347.843 274.559 358.752 274.85 360.878 272.207C363.005 269.564 325.653 250.757 325.653 250.757Z" fill="white" stroke="#1D2C45" stroke-width="0.5" stroke-linecap="round" stroke-linejoin="round"/>
<path d="M245.613 253.989C245.613 253.989 251.977 252.809 252.886 252.809L245.613 253.989Z" fill="white"/>
<path d="M245.613 253.989C245.613 253.989 251.977 252.809 252.886 252.809" stroke="#1D2C45" stroke-width="0.5" stroke-linecap="round" stroke-linejoin="round"/>
<path d="M390.855 202.257C391.434 201.325 391.934 200.349 392.35 199.339" stroke="#1D2C45" stroke-width="0.5" stroke-linecap="round" stroke-linejoin="round"/>
<path d="M379.02 220.214C379.02 220.214 384.775 211.979 388.759 205.712" stroke="#1D2C45" stroke-width="0.5" stroke-linecap="round" stroke-linejoin="round"/>
<path d="M357.784 153.804C357.784 153.804 346.567 162.323 345.358 168.489C344.148 174.656 337.168 236.064 337.168 236.064C337.168 236.064 334.44 237.244 334.44 238.715V241.664L323.523 249.6C323.523 249.6 325.95 256.058 335.381 262.233C344.812 268.407 358.694 276.903 363.547 273.67C368.401 270.437 369.871 261.628 370.211 257.223C370.551 252.818 386.283 192.582 386.283 192.582" fill="#FFCC00"/>
<path d="M357.784 153.804C357.784 153.804 346.567 162.323 345.358 168.489C344.148 174.656 337.168 236.064 337.168 236.064C337.168 236.064 334.44 237.244 334.44 238.715V241.664L323.523 249.6C323.523 249.6 325.95 256.058 335.381 262.233C344.812 268.407 358.694 276.903 363.547 273.67C368.401 270.437 369.871 261.628 370.211 257.223C370.551 252.818 386.283 192.582 386.283 192.582" stroke="#1D2C45" stroke-width="0.5" stroke-linecap="round" stroke-linejoin="round"/>
<path d="M335.326 262.217C344.725 268.384 358.67 276.903 363.524 273.67C368.378 270.437 369.848 261.627 370.188 257.222C370.188 256.816 370.378 255.935 370.646 254.671C359.801 249.393 334.417 241.648 334.417 241.648L323.5 249.585C323.5 249.585 325.951 256.043 335.326 262.217Z" fill="#FFCC00" stroke="#1D2C45" stroke-width="0.5" stroke-linecap="round" stroke-linejoin="round"/>
<path d="M357.742 241.028C358.707 241.403 359.639 241.794 360.517 242.238" stroke="#1D2C45" stroke-width="0.5" stroke-linecap="round" stroke-linejoin="round"/>
<path d="M337.172 236.063C342.812 236.826 348.379 238.028 353.82 239.656" stroke="#1D2C45" stroke-width="0.5" stroke-linecap="round" stroke-linejoin="round"/>
<path d="M341.414 234.891C341.414 234.891 352.632 233.42 359.904 235.481" stroke="#1D2C45" stroke-width="0.5" stroke-linecap="round" stroke-linejoin="round"/>
<path d="M353.02 256.587C355.059 257.782 356.925 258.831 358.403 259.574" stroke="#1D2C45" stroke-width="0.5" stroke-linecap="round" stroke-linejoin="round"/>
<path d="M332.961 244C332.961 244 341.791 249.799 349.672 254.571" stroke="#1D2C45" stroke-width="0.5" stroke-linecap="round" stroke-linejoin="round"/>
<path d="M225.46 144.603C225.46 142.052 221.507 143.584 221.507 143.584C222.536 142.44 223.504 141.246 224.408 140.007C225.46 138.475 223.349 136.69 221.768 137.961C219.999 139.162 218.15 140.25 216.234 141.217C215.289 141.641 214.37 142.119 213.483 142.65C211.064 144.059 196.535 149.69 194.353 151.567C192.171 153.443 190.234 167.761 190.234 167.761C190.234 167.761 188.78 171.99 186.843 176.686C184.906 181.382 160.44 214.476 160.44 214.476L143.507 200.526C143.303 200.287 143.043 200.098 142.749 199.975C142.455 199.853 142.135 199.8 141.815 199.821C140.606 199.821 142.653 207.405 141.926 213.036C141.198 218.666 135.602 224.925 138.242 226.572C140.882 228.219 164.384 240.514 166.566 239.365C168.748 238.216 180.795 221.447 183.958 213.702C187.12 205.957 199.436 172.955 199.436 172.955C199.436 172.955 205.491 169.891 209.855 167.087C214.219 164.283 215.389 155.596 215.389 152.991C215.389 151.957 212.614 151.666 213.215 150.119C215.436 149.383 225.46 146.733 225.46 144.603Z" fill="white" stroke="#1D2C45" stroke-width="0.5" stroke-linecap="round" stroke-linejoin="round"/>
<path d="M219.262 175.292C216.748 174.526 210.977 172.748 209.973 171.707C209.496 171.176 209.111 170.573 208.835 169.922L211.958 146.863H212.076C213.417 147.035 214.779 146.949 216.085 146.61C217.391 146.271 218.616 145.685 219.688 144.887C220.76 144.088 221.659 143.093 222.334 141.957C223.008 140.821 223.444 139.567 223.618 138.268L224.274 116.45L206.211 114.152L201.041 135.395C200.863 136.694 200.952 138.014 201.302 139.28C201.651 140.546 202.256 141.732 203.08 142.771C203.904 143.81 204.931 144.682 206.103 145.335C207.275 145.989 208.569 146.412 209.91 146.58H210.029L206.961 169.294C206.472 169.985 205.853 170.58 205.135 171.048C203.894 171.814 197.831 172.105 195.206 172.205C194.846 172.216 194.498 172.333 194.208 172.541C193.919 172.749 193.702 173.038 193.586 173.369L206.827 175.054L207.278 175.108L220.519 176.793C220.488 176.45 220.352 176.123 220.128 175.856C219.904 175.588 219.602 175.392 219.262 175.292Z" fill="white" stroke="#1D2C45" stroke-width="0.5" stroke-linecap="round" stroke-linejoin="round"/>
<path d="M219.234 148.632C219.234 148.632 210.364 149.996 210.048 152.156C209.732 154.317 212.523 154.761 213.811 154.455C215.1 154.148 218.357 154.271 219.961 151.842C221.566 149.414 220.001 148.472 219.234 148.632Z" fill="white" stroke="#1D2C45" stroke-width="0.5" stroke-linecap="round" stroke-linejoin="round"/>
<path d="M218.146 157.986C217.789 159.323 217.258 160.61 216.565 161.816C215.774 162.835 210.51 164.367 209.98 163.096C209.45 161.824 211.031 161.303 212.351 160.798C213.672 160.292 218.146 157.986 218.146 157.986Z" fill="white" stroke="#1D2C45" stroke-width="0.5" stroke-linecap="round" stroke-linejoin="round"/>
<path d="M218.87 153.283C218.87 153.283 220.981 154.516 218.791 157.466C217.819 158.776 210.269 161.373 209.218 159.84C208.167 158.308 210.175 156.608 212.277 155.581C214.423 154.682 216.625 153.915 218.87 153.283Z" fill="white" stroke="#1D2C45" stroke-width="0.5" stroke-linecap="round" stroke-linejoin="round"/>
<path d="M210.497 144.864H210.6L212.363 145.086C214.691 145.375 217.043 144.759 218.904 143.372C220.765 141.985 221.983 139.941 222.292 137.686L222.632 126.325L204.387 128.769L202.806 135.211C202.654 136.335 202.733 137.477 203.037 138.571C203.342 139.665 203.867 140.69 204.582 141.586C205.296 142.483 206.187 143.235 207.202 143.797C208.217 144.359 209.337 144.722 210.497 144.864Z" fill="#FFCC00"/>
<path d="M191.688 163.073C191.688 163.073 193.379 149.927 194.597 147.575C195.814 145.224 201.861 142.213 203.798 139.601C205.735 136.988 205.253 134.437 206.96 136.077C208.668 137.716 207.933 141.478 206.478 143.354C205.024 145.231 202.359 148.755 202.359 148.755C202.359 148.755 203.253 158.339 201.166 161.97C199.648 164.613 196.304 166.566 196.304 166.566" fill="white"/>
<path d="M191.688 163.073C191.688 163.073 193.379 149.927 194.597 147.575C195.814 145.224 201.861 142.213 203.798 139.601C205.735 136.988 205.253 134.437 206.96 136.077C208.668 137.716 207.933 141.478 206.478 143.354C205.024 145.231 202.359 148.755 202.359 148.755C202.359 148.755 203.253 158.339 201.166 161.97C199.648 164.613 196.304 166.566 196.304 166.566" stroke="#1D2C45" stroke-width="0.5" stroke-linecap="round" stroke-linejoin="round"/>
<path d="M155.597 67.2076C155.597 67.2076 142.301 57.1798 125.305 62.1899C108.308 67.1999 83.5652 93.6905 83.2016 112.306C82.838 130.921 98.34 151.682 100.933 153.467C103.526 155.252 120.135 155.619 124.941 162.774C129.747 169.929 138.237 191.05 141.542 194.627C144.846 198.205 153.732 198.565 156.688 193.915C159.645 189.265 158.902 187.472 158.902 187.472C158.902 187.472 151.518 190.337 151.518 183.535C151.518 176.732 158.166 176.38 165.921 172.082C173.676 167.784 178.111 157.764 172.941 147.384C167.771 137.004 160.38 128.769 168.506 119.806C176.633 110.843 182.174 108.353 182.174 95.8278C182.174 83.3026 162.214 70.7851 155.597 67.2076Z" fill="#1D2C45" stroke="#1D2C45" stroke-width="0.5" stroke-linecap="round" stroke-linejoin="round"/>
<path d="M114.697 78.0779C111.962 81.1421 108.855 84.7963 105.124 88.8717C90.1833 105.151 83.4639 121.437 92.4283 135.188" stroke="#8A8A8A" stroke-width="0.5" stroke-miterlimit="10"/>
<path d="M161.492 83.0884C161.492 83.0884 148.053 67.8896 136.472 65.7217C128.851 64.2891 124.14 67.7288 117.547 74.9145" stroke="#8A8A8A" stroke-width="0.5" stroke-miterlimit="10"/>
<path d="M96.9453 138.681C97.3039 140.205 97.7877 141.699 98.392 143.148" stroke="#8A8A8A" stroke-width="0.5" stroke-miterlimit="10"/>
<path d="M131.216 103.129C131.216 103.129 121.896 98.9994 109.248 108.047C98.9709 115.355 95.0736 126.21 96.5044 136.223" stroke="#8A8A8A" stroke-width="0.5" stroke-miterlimit="10"/>
<path d="M141.895 171.301C134.408 180.44 138.116 188.437 144.314 190.912" stroke="#8A8A8A" stroke-width="0.5" stroke-miterlimit="10"/>
<path d="M172.731 93.5378C175.103 95.7901 177.253 98.5709 177.553 101.536C178.344 108.775 161.126 106.959 162.249 120.35C163.371 133.741 179.047 146.044 170.834 156.539C163.648 165.732 153.6 162.43 145.695 167.77" stroke="#8A8A8A" stroke-width="0.5" stroke-miterlimit="10"/>
<path d="M165.226 88.1443C166.468 88.8291 167.669 89.581 168.823 90.3965" stroke="#8A8A8A" stroke-width="0.5" stroke-miterlimit="10"/>
<path d="M162.215 88.0984C162.215 88.0984 152.982 88.4508 151.504 90.9558C150.026 93.4609 147.069 100.264 143.377 101.681C139.686 103.098 131.188 103.113 131.188 103.113C131.188 103.113 128.524 111.027 126.302 111.747C124.081 112.467 121.211 107.051 121.211 107.051C121.211 107.051 115.306 105.978 114.935 112.781C114.563 119.584 113.828 130.316 110.136 138.191C106.444 146.067 99.4245 155.727 96.8396 160.024C94.2546 164.322 83.9067 177.207 82.4284 192.965C80.9502 208.723 85.7565 240.929 85.7565 240.929L69.875 272.782H138.571C138.571 272.782 137.464 246.659 137.464 243.434C137.464 240.208 145.219 224.106 145.962 218.023C146.705 211.941 143.377 197.975 140.792 189.388C138.207 180.8 131.488 167.034 130.444 163.97C128.982 159.641 129.338 157.887 129.709 154.309C130.081 150.732 135.243 143.209 135.243 143.209C135.243 143.209 147.061 149.292 149.275 147.507C151.488 145.722 157.401 130.653 157.401 130.653C157.401 130.653 163.314 129.581 163.314 126.356C163.314 123.131 160.729 117.768 160.729 115.263C160.729 112.758 165.164 110.605 165.528 103.772C165.891 96.9388 162.215 88.0984 162.215 88.0984Z" fill="white" stroke="#1D2C45" stroke-width="0.5" stroke-linecap="round" stroke-linejoin="round"/>
<path d="M135.28 143.217L129.406 139.203L131.193 148.518L135.28 143.217Z" fill="#1D2C45" stroke="#1D2C45" stroke-width="0.5" stroke-linecap="round" stroke-linejoin="round"/>
<path d="M123.482 111.716C123.482 111.716 120.525 104.201 115.719 105.993C110.913 107.786 112.771 118.879 114.249 121.384C115.727 123.889 122.004 124.601 122.004 124.601C122.004 124.601 123.11 131.044 124.589 131.404" fill="white"/>
<path d="M123.482 111.716C123.482 111.716 120.525 104.201 115.719 105.993C110.913 107.786 112.771 118.879 114.249 121.384C115.727 123.889 122.004 124.601 122.004 124.601C122.004 124.601 123.11 131.044 124.589 131.404" stroke="#1D2C45" stroke-width="0.5" stroke-linecap="round" stroke-linejoin="round"/>
<path d="M121.368 130.484C121.369 129.776 121.154 129.083 120.749 128.494C120.344 127.904 119.767 127.445 119.092 127.173C118.418 126.901 117.675 126.83 116.958 126.968C116.241 127.105 115.582 127.446 115.066 127.947C114.549 128.448 114.197 129.086 114.055 129.781C113.913 130.475 113.987 131.195 114.267 131.849C114.547 132.503 115.022 133.062 115.63 133.454C116.238 133.847 116.953 134.056 117.684 134.054C118.66 134.052 119.596 133.675 120.287 133.006C120.977 132.337 121.366 131.431 121.368 130.484Z" fill="#FFCC00" stroke="#1D2C45" stroke-width="0.5" stroke-linecap="round" stroke-linejoin="round"/>
<path d="M119.568 125.084C119.569 124.722 119.46 124.367 119.253 124.064C119.046 123.762 118.751 123.526 118.405 123.387C118.06 123.247 117.679 123.21 117.312 123.281C116.945 123.351 116.607 123.526 116.342 123.782C116.078 124.039 115.898 124.366 115.825 124.721C115.752 125.077 115.79 125.446 115.934 125.781C116.078 126.116 116.322 126.402 116.634 126.602C116.946 126.803 117.312 126.909 117.686 126.908C118.185 126.906 118.662 126.713 119.014 126.371C119.367 126.03 119.566 125.567 119.568 125.084Z" fill="#FFCC00" stroke="#1D2C45" stroke-width="0.5" stroke-linecap="round" stroke-linejoin="round"/>
<path d="M156.366 114.129C156.018 115.661 155.046 116.726 154.184 116.542C153.322 116.358 152.903 115.01 153.251 113.477C153.599 111.945 154.564 110.88 155.425 111.064C156.287 111.248 156.682 112.612 156.366 114.129Z" fill="#1D2C45"/>
<path d="M152.727 107.825C152.727 107.825 156.205 104.76 159.399 107.825" stroke="#1D2C45" stroke-width="0.5" stroke-linecap="round" stroke-linejoin="round"/>
<path d="M150.409 132.883C148.083 131.632 146.166 129.774 144.875 127.52" stroke="#1D2C45" stroke-width="0.5" stroke-linecap="round" stroke-linejoin="round"/>
<path d="M136.128 197.569C129.804 195.271 126.246 174.587 119.527 166.16C112.808 157.733 107.669 160.415 100.555 160.415C99.3391 160.496 98.1212 160.291 97.0052 159.817C96.9578 159.886 96.9103 159.97 96.8708 160.039C94.2779 164.337 83.9379 177.222 82.4597 192.98C80.9814 208.738 85.7878 240.943 85.7878 240.943L69.9062 272.797H138.602C138.602 272.797 137.496 246.674 137.496 243.449C137.496 240.223 145.25 224.121 145.994 218.038C146.594 213.105 144.523 203.016 142.341 194.796C140.958 197.27 138.934 198.588 136.128 197.569Z" fill="#FFCC00" stroke="#1D2C45" stroke-width="0.5" stroke-linecap="round" stroke-linejoin="round"/>
<path d="M144.823 237.067C144.823 237.067 126.641 192.252 119.526 180.378C112.411 168.504 103.716 163.908 96.601 168.887C89.4863 173.867 91.4626 186.89 96.601 197.232C101.739 207.574 127.036 250.473 130.198 252.389C133.36 254.304 155.89 263.114 171.7 265.795C187.51 268.476 208.459 269.625 210.04 269.625C211.621 269.625 228.617 260.815 230.198 260.432C231.779 260.049 232.57 258.9 235.337 258.9C238.104 258.9 242.451 255.836 243.242 254.687C244.033 253.538 234.151 253.155 229.408 252.006C224.665 250.856 222.689 251.623 219.131 253.155C215.574 254.687 207.669 261.198 206.088 261.198C204.507 261.198 191.858 260.432 187.115 258.517C182.372 256.602 144.823 237.067 144.823 237.067Z" fill="white" stroke="#1D2C45" stroke-width="0.5" stroke-linecap="round" stroke-linejoin="round"/>
</svg>
