<svg width="34" height="33" viewBox="0 0 34 33" fill="none" xmlns="http://www.w3.org/2000/svg">
<circle cx="17.0848" cy="16.3564" r="16.1433" fill="#1D2C45"/>
<path d="M22.1297 16.3565C22.1297 17.6945 21.5982 18.9776 20.6521 19.9237C19.706 20.8698 18.4229 21.4013 17.0849 21.4013C15.7469 21.4013 14.4638 20.8698 13.5177 19.9237C12.5716 18.9776 12.0401 17.6945 12.0401 16.3565C12.0401 16.0689 12.0704 15.7881 12.1225 15.5157H10.3585V22.237C10.3585 22.7045 10.7368 23.0829 11.2043 23.0829H22.9671C23.1912 23.0824 23.4059 22.9931 23.5641 22.8346C23.7224 22.676 23.8113 22.4611 23.8113 22.237V15.5157H22.0473C22.0994 15.7881 22.1297 16.0689 22.1297 16.3565ZM17.0849 19.7197C17.5267 19.7196 17.9641 19.6325 18.3722 19.4633C18.7803 19.2941 19.1511 19.0463 19.4634 18.7338C19.7757 18.4213 20.0234 18.0504 20.1923 17.6422C20.3613 17.2341 20.4482 16.7966 20.4481 16.3548C20.448 15.913 20.3609 15.4756 20.1917 15.0675C20.0225 14.6594 19.7746 14.2886 19.4622 13.9763C19.1497 13.664 18.7788 13.4163 18.3706 13.2474C17.9624 13.0784 17.525 12.9915 17.0832 12.9916C16.191 12.9918 15.3354 13.3465 14.7047 13.9775C14.074 14.6086 13.7198 15.4643 13.72 16.3565C13.7202 17.2487 14.0749 18.1043 14.7059 18.735C15.3369 19.3657 16.1927 19.7199 17.0849 19.7197ZM21.1207 12.8251H23.137C23.2709 12.8251 23.3994 12.772 23.4943 12.6775C23.5892 12.5829 23.6427 12.4546 23.6431 12.3207V10.3044C23.6431 10.1702 23.5898 10.0414 23.4949 9.94651C23.4 9.85158 23.2712 9.79825 23.137 9.79825H21.1207C20.9865 9.79825 20.8577 9.85158 20.7628 9.94651C20.6679 10.0414 20.6146 10.1702 20.6146 10.3044V12.3207C20.6162 12.5981 20.8433 12.8251 21.1207 12.8251ZM17.0849 0.213135C12.8034 0.213135 8.69728 1.91395 5.66981 4.94142C2.64234 7.96888 0.941528 12.075 0.941528 16.3565C0.941528 20.638 2.64234 24.7441 5.66981 27.7716C8.69728 30.799 12.8034 32.4999 17.0849 32.4999C19.2049 32.4999 21.3041 32.0823 23.2627 31.271C25.2213 30.4597 27.0009 29.2706 28.5 27.7716C29.999 26.2725 31.1881 24.4929 31.9994 22.5343C32.8107 20.5757 33.2282 18.4765 33.2282 16.3565C33.2282 14.2365 32.8107 12.1373 31.9994 10.1787C31.1881 8.2201 29.999 6.44046 28.5 4.94142C27.0009 3.44237 25.2213 2.25325 23.2627 1.44197C21.3041 0.630695 19.2049 0.213135 17.0849 0.213135ZM25.4929 22.8962C25.4929 23.9237 24.6521 24.7645 23.6246 24.7645H10.5451C9.51769 24.7645 8.67689 23.9237 8.67689 22.8962V9.81675C8.67689 8.78929 9.51769 7.94849 10.5451 7.94849H23.6246C24.6521 7.94849 25.4929 8.78929 25.4929 9.81675V22.8962Z" fill="#F0F5FE"/>
</svg>
