<svg width="34" height="33" viewBox="0 0 34 33" fill="none" xmlns="http://www.w3.org/2000/svg">
<circle cx="16.9605" cy="16.3564" r="16.1433" fill="#1D2C45"/>
<path d="M16.9606 0.213135C8.04619 0.213135 0.8172 7.44213 0.8172 16.3565C0.8172 25.2709 8.04619 32.4999 16.9606 32.4999C25.8749 32.4999 33.1039 25.2709 33.1039 16.3565C33.1039 7.44213 25.8749 0.213135 16.9606 0.213135ZM12.2695 24.6174H8.33784V12.7889H12.2695V24.6174ZM10.3038 11.1738H10.2782C8.95884 11.1738 8.10556 10.2655 8.10556 9.13046C8.10556 7.96976 8.98495 7.08667 10.3299 7.08667C11.6749 7.08667 12.5025 7.96976 12.5281 9.13046C12.5281 10.2655 11.6749 11.1738 10.3038 11.1738ZM26.4462 24.6174H22.515V18.2894C22.515 16.6991 21.9457 15.6146 20.5232 15.6146C19.4371 15.6146 18.7903 16.3461 18.506 17.0524C18.4021 17.3051 18.3767 17.6583 18.3767 18.0118V24.6174H14.4453C14.4453 24.6174 14.4968 13.8986 14.4453 12.7889H18.3767V14.4637C18.8992 13.6577 19.834 12.5113 21.9199 12.5113C24.5066 12.5113 26.4462 14.2019 26.4462 17.835V24.6174Z" fill="#F0F5FE"/>
</svg>
