<svg width="33" height="33" viewBox="0 0 33 33" fill="none" xmlns="http://www.w3.org/2000/svg">
<circle cx="16.7944" cy="16.3564" r="16.1433" fill="#1D2C45"/>
<path d="M16.7945 0.213135C7.87864 0.213135 0.651123 7.44065 0.651123 16.3565C0.651123 25.2723 7.87864 32.4999 16.7945 32.4999C25.7103 32.4999 32.9378 25.2723 32.9378 16.3565C32.9378 7.44065 25.7103 0.213135 16.7945 0.213135ZM23.3611 13.4372C23.3679 13.5751 23.3695 13.713 23.3695 13.8475C23.3695 18.0515 20.1728 22.8962 14.3242 22.8962C12.596 22.8991 10.9038 22.4028 9.45094 21.4669C9.69813 21.4971 9.95205 21.5089 10.2093 21.5089C11.6992 21.5089 13.0697 21.0028 14.1577 20.1485C13.4947 20.1355 12.8523 19.9159 12.3199 19.5205C11.7876 19.125 11.3919 18.5733 11.188 17.9422C11.6642 18.0328 12.1547 18.0138 12.6224 17.8868C11.9028 17.7412 11.2556 17.3513 10.7907 16.7831C10.3257 16.2148 10.0716 15.5033 10.0714 14.7691V14.7304C10.5003 14.9675 10.9913 15.1121 11.5126 15.1289C10.8379 14.6798 10.3603 13.9899 10.1775 13.2004C9.9946 12.4108 10.1203 11.5812 10.5288 10.8812C11.3275 11.8633 12.3235 12.6666 13.4524 13.2393C14.5813 13.812 15.8178 14.1413 17.082 14.2057C16.9213 13.5235 16.9905 12.8073 17.2788 12.1685C17.5671 11.5296 18.0584 11.0039 18.6763 10.6731C19.2942 10.3423 20.0041 10.2249 20.6956 10.3392C21.3871 10.4534 22.0215 10.793 22.5002 11.305C23.2118 11.1642 23.8942 10.9032 24.5181 10.5331C24.2809 11.2699 23.7843 11.8955 23.1207 12.2937C23.751 12.2178 24.3665 12.0484 24.9469 11.7909C24.5206 12.4298 23.9835 12.9873 23.3611 13.4372Z" fill="#F0F5FE"/>
</svg>
