<svg width="33" height="33" viewBox="0 0 33 33" fill="none" xmlns="http://www.w3.org/2000/svg">
<path d="M0.107666 16.3565C0.107666 7.44213 7.33666 0.213135 16.251 0.213135C25.1654 0.213135 32.3944 7.44213 32.3944 16.3565C32.3944 25.2709 25.1654 32.4999 16.251 32.4999C7.33666 32.4999 0.107666 25.2709 0.107666 16.3565Z" fill="#1D2C45"/>
<path d="M16.251 0.213135C7.33666 0.213135 0.107666 7.44213 0.107666 16.3565C0.107666 25.2709 7.33666 32.4999 16.251 32.4999C25.1654 32.4999 32.3944 25.2709 32.3944 16.3565C32.3944 7.44213 25.1654 0.213135 16.251 0.213135ZM26.3382 16.373C26.3382 16.373 26.3382 19.6469 25.9229 21.2257C25.6901 22.0898 25.0087 22.7711 24.1446 23.0037C22.5659 23.4192 16.251 23.4192 16.251 23.4192C16.251 23.4192 9.95266 23.4192 8.35744 22.9872C7.49332 22.7546 6.81198 22.073 6.5792 21.2089C6.16364 19.6469 6.16364 16.3565 6.16364 16.3565C6.16364 16.3565 6.16364 13.0828 6.5792 11.5041C6.81173 10.64 7.50983 9.94186 8.35744 9.70933C9.93616 9.29377 16.251 9.29377 16.251 9.29377C16.251 9.29377 22.5659 9.29377 24.1446 9.72583C25.0087 9.95837 25.6901 10.64 25.9229 11.5041C26.3549 13.0828 26.3382 16.373 26.3382 16.373Z" fill="#F0F5FE"/>
<path d="M14.5802 19.1389L19.0335 16.3556L14.5802 13.5723V19.1389Z" fill="#F0F5FE"/>
</svg>
